<svg width="1440" height="1080" viewBox="0 0 1440 1080" fill="none" xmlns="http://www.w3.org/2000/svg">
  <!-- Background -->
  <rect width="1440" height="1080" fill="#F8F8F8"/>

  <!-- Sidebar -->
  <rect width="260" height="1080" fill="#004D58"/>
  <rect x="108" y="32" width="44" height="44" rx="10" fill="white"/>
  <text x="130" y="62" text-anchor="middle" fill="#007A8C" font-family="Inter" font-size="20" font-weight="700">CD</text>
  <text x="130" y="96" text-anchor="middle" fill="white" font-family="IBM Plex Sans Thai" font-size="20" font-weight="700">CareDee Admin</text>
  <text x="130" y="112" text-anchor="middle" fill="white" fill-opacity="0.5" font-family="IBM Plex Sans Thai" font-size="11" font-weight="400">SYSTEM CONTROL PANEL</text>
  
  <line x1="20" y1="130" x2="240" y2="130" stroke="white" stroke-opacity="0.1"/>

  <!-- Sidebar Menu -->
  <g transform="translate(0, 150)">
    <!-- Dashboard -->
    <g transform="translate(0, 0)">
        <text x="24" y="30" fill="white" fill-opacity="0.7" font-family="Inter" font-size="15">📊</text>
        <text x="60" y="30" fill="white" fill-opacity="0.7" font-family="IBM Plex Sans Thai" font-size="15">Dashboard</text>
    </g>

    <!-- Active Item: User & Provider Management -->
    <g transform="translate(0, 48)">
        <rect x="0" y="0" width="260" height="48" fill="white" fill-opacity="0.1"/>
        <rect x="0" y="0" width="4" height="48" fill="#FF9F43"/>
        <text x="24" y="30" fill="white" font-family="Inter" font-size="15">👤</text>
        <text x="60" y="30" fill="white" font-family="IBM Plex Sans Thai" font-size="15" font-weight="500">บัญชีผู้ดูแล/ผู้ให้บริการ</text>
    </g>

    <g transform="translate(0, 96)">
      <text x="24" y="30" fill="white" fill-opacity="0.7" font-family="Inter" font-size="15">💰</text>
      <text x="60" y="30" fill="white" fill-opacity="0.7" font-family="IBM Plex Sans Thai" font-size="15">จัดการการเงิน &amp; รายได้</text>
    </g>
    <g transform="translate(0, 144)">
      <text x="24" y="30" fill="white" fill-opacity="0.7" font-family="Inter" font-size="15">✨</text>
      <text x="60" y="30" fill="white" fill-opacity="0.7" font-family="IBM Plex Sans Thai" font-size="15">คุณภาพรีวิว &amp; อุทธรณ์</text>
    </g>
    <g transform="translate(0, 192)">
      <text x="24" y="30" fill="white" fill-opacity="0.7" font-family="Inter" font-size="15">📈</text>
      <text x="60" y="30" fill="white" fill-opacity="0.7" font-family="IBM Plex Sans Thai" font-size="15">รายงานระบบ</text>
    </g>
    <g transform="translate(0, 240)">
      <text x="24" y="30" fill="white" fill-opacity="0.7" font-family="Inter" font-size="15">🛡️</text>
      <text x="60" y="30" fill="white" fill-opacity="0.7" font-family="IBM Plex Sans Thai" font-size="15">นโยบาย &amp; PDPA</text>
    </g>
    <g transform="translate(0, 288)">
      <text x="24" y="30" fill="white" fill-opacity="0.7" font-family="Inter" font-size="15">🖥️</text>
      <text x="60" y="30" fill="white" fill-opacity="0.7" font-family="IBM Plex Sans Thai" font-size="15">เฝ้าระวังระบบคลาวด์</text>
    </g>
  </g>

  <line x1="0" y1="920" x2="260" y2="920" stroke="white" stroke-opacity="0.1"/>
  <g transform="translate(0, 940)">
    <text x="24" y="30" fill="white" fill-opacity="0.7" font-family="Inter" font-size="15">🚪</text>
    <text x="60" y="30" fill="white" fill-opacity="0.7" font-family="IBM Plex Sans Thai" font-size="15">ออกจากระบบ</text>
  </g>

  <!-- Main Content -->
  <!-- Header -->
  <g transform="translate(292, 32)">
    <rect width="1116" height="80" rx="16" fill="white" filter="url(#shadow)"/>
    <rect x="24" y="16" width="360" height="48" rx="12" stroke="#B9B9C3" fill="white"/>
    <text x="44" y="46" fill="#B9B9C3" font-family="IBM Plex Sans Thai" font-size="14">ค้นหาชื่อผู้ดูแล, เลขใบอนุญาต หรือ Operator...</text>
    
    <g transform="translate(900, 16)">
      <text x="140" y="18" text-anchor="end" fill="#1E1E1E" font-family="IBM Plex Sans Thai" font-size="14" font-weight="700">Michael Jackson</text>
      <text x="140" y="38" text-anchor="end" fill="#6E6B7B" font-family="IBM Plex Sans Thai" font-size="12">Platform Operator</text>
      <rect x="148" y="26" width="70" height="16" rx="8" fill="#28C76F"/>
      <text x="183" y="38" text-anchor="middle" fill="white" font-family="Inter" font-size="10" font-weight="600">MFA ACTIVE</text>
      <rect x="226" y="0" width="48" height="48" rx="12" fill="#E0F2F4"/>
      <text x="250" y="30" text-anchor="middle" fill="#007A8C" font-family="Inter" font-size="18" font-weight="700">MJ</text>
    </g>
  </g>

  <!-- Verification Dashboard (Metrics) -->
  <g transform="translate(292, 144)">
    <!-- Card 1 -->
    <rect width="261" height="120" rx="16" fill="white" filter="url(#shadow)"/>
    <path d="M0 16C0 7.16344 7.16344 0 16 0H20V120H16C7.16344 120 0 112.837 0 104V16Z" fill="#007A8C"/>
    <text x="24" y="36" fill="#6E6B7B" font-family="IBM Plex Sans Thai" font-size="14" font-weight="500">ผู้สมัคร Caregiver ทั้งหมด</text>
    <text x="24" y="76" fill="#1E1E1E" font-family="IBM Plex Sans Thai" font-size="28" font-weight="700">1,240</text>
    <text x="24" y="100" fill="#28C76F" font-family="IBM Plex Sans Thai" font-size="12" font-weight="500">รอยืนยัน 45 รายการ</text>

    <!-- Card 2 -->
    <g transform="translate(285, 0)">
      <rect width="261" height="120" rx="16" fill="white" filter="url(#shadow)"/>
      <path d="M0 16C0 7.16344 7.16344 0 16 0H20V120H16C7.16344 120 0 112.837 0 104V16Z" fill="#00CFE8"/>
      <text x="24" y="36" fill="#6E6B7B" font-family="IBM Plex Sans Thai" font-size="14" font-weight="500">Operator ในระบบ</text>
      <text x="24" y="76" fill="#1E1E1E" font-family="IBM Plex Sans Thai" font-size="28" font-weight="700">56</text>
      <text x="24" y="100" fill="#6E6B7B" font-family="IBM Plex Sans Thai" font-size="12" font-weight="500">Active 52 | Pending 4</text>
    </g>

    <!-- Card 3 -->
    <g transform="translate(570, 0)">
      <rect width="261" height="120" rx="16" fill="white" filter="url(#shadow)"/>
      <path d="M0 16C0 7.16344 7.16344 0 16 0H20V120H16C7.16344 120 0 112.837 0 104V16Z" fill="#FF9F43"/>
      <text x="24" y="36" fill="#6E6B7B" font-family="IBM Plex Sans Thai" font-size="14" font-weight="500">สถาบันฝึกอบรม (TI)</text>
      <text x="24" y="76" fill="#1E1E1E" font-family="IBM Plex Sans Thai" font-size="28" font-weight="700">18</text>
      <text x="24" y="100" fill="#FF9F43" font-family="IBM Plex Sans Thai" font-size="12" font-weight="500">เชื่อมต่อ API แล้ว 15 แห่ง</text>
    </g>

    <!-- Card 4 -->
    <g transform="translate(855, 0)">
      <rect width="261" height="120" rx="16" fill="white" filter="url(#shadow)"/>
      <path d="M0 16C0 7.16344 7.16344 0 16 0H20V120H16C7.16344 120 0 112.837 0 104V16Z" fill="#28C76F"/>
      <text x="24" y="36" fill="#6E6B7B" font-family="IBM Plex Sans Thai" font-size="14" font-weight="500">อัตราการผ่าน Verification</text>
      <text x="24" y="76" fill="#1E1E1E" font-family="IBM Plex Sans Thai" font-size="28" font-weight="700">88.5%</text>
      <text x="24" y="100" fill="#28C76F" font-family="IBM Plex Sans Thai" font-size="12" font-weight="500">คุณภาพสูงกว่าไตรมาสก่อน</text>
    </g>
  </g>

  <!-- Filter Section -->
  <g transform="translate(292, 296)">
    <text x="0" y="24" fill="#6E6B7B" font-family="IBM Plex Sans Thai" font-size="14" font-weight="600">สังกัด Operator:</text>
    <rect x="110" y="0" width="180" height="40" rx="8" fill="white" stroke="#B9B9C3"/>
    <text x="126" y="26" fill="#1E1E1E" font-family="IBM Plex Sans Thai" font-size="14">ทั้งหมด (ทุกสังกัด)</text>
    <path d="M270 16L275 21L280 16" stroke="#6E6B7B" stroke-width="2"/>

    <text x="320" y="24" fill="#6E6B7B" font-family="IBM Plex Sans Thai" font-size="14" font-weight="600">ประเภทบัญชี:</text>
    <rect x="420" y="0" width="120" height="40" rx="8" fill="white" stroke="#B9B9C3"/>
    <text x="436" y="26" fill="#1E1E1E" font-family="IBM Plex Sans Thai" font-size="14">ทั้งหมด</text>
    <path d="M520 16L525 21L530 16" stroke="#6E6B7B" stroke-width="2"/>
  </g>

  <!-- Approval Queue Section -->
  <g transform="translate(292, 360)">
    <rect width="1116" height="300" rx="16" fill="white" filter="url(#shadow)"/>
    <text x="28" y="48" fill="#1E1E1E" font-family="IBM Plex Sans Thai" font-size="18" font-weight="700">รายการรออนุมัติ (Filtered by Operator)</text>
    <text x="28" y="72" fill="#6E6B7B" font-family="IBM Plex Sans Thai" font-size="13">คัดกรองเบื้องต้นโดย Operator แล้ว</text>
    <line x1="28" y1="88" x2="1088" y2="88" stroke="#F8F8F8"/>

    <!-- Table Header -->
    <rect x="28" y="104" width="1060" height="40" rx="4" fill="#F8F8F8"/>
    <text x="42" y="130" fill="#6E6B7B" font-family="IBM Plex Sans Thai" font-size="13" font-weight="600">ชื่อ-นามสกุล / องค์กร</text>
    <text x="250" y="130" fill="#6E6B7B" font-family="IBM Plex Sans Thai" font-size="13" font-weight="600">ประเภท</text>
    <text x="380" y="130" fill="#6E6B7B" font-family="IBM Plex Sans Thai" font-size="13" font-weight="600">สังกัด Operator</text>
    <text x="550" y="130" fill="#6E6B7B" font-family="IBM Plex Sans Thai" font-size="13" font-weight="600">ใบเซอร์ (INSTITUTE SYNC)</text>
    <text x="800" y="130" fill="#6E6B7B" font-family="IBM Plex Sans Thai" font-size="13" font-weight="600">สถานะ</text>
    <text x="950" y="130" fill="#6E6B7B" font-family="IBM Plex Sans Thai" font-size="13" font-weight="600">จัดการ</text>

    <!-- Row 1 -->
    <g transform="translate(0, 144)">
      <text x="42" y="24" fill="#1E1E1E" font-family="IBM Plex Sans Thai" font-size="14" font-weight="600">วิภาวดี รักดี</text>
      <text x="42" y="42" fill="#6E6B7B" font-family="Inter" font-size="11">ID: CG-55401</text>
      
      <text x="250" y="32" fill="#1E1E1E" font-family="IBM Plex Sans Thai" font-size="14">Caregiver</text>
      <text x="380" y="32" fill="#1E1E1E" font-family="IBM Plex Sans Thai" font-size="14" font-weight="500">EN Enterprise</text>
      
      <g transform="translate(550, 16)">
        <text x="0" y="16" fill="#28C76F" font-family="IBM Plex Sans Thai" font-size="12" font-weight="700">✅ Verified by TI</text>
        <text x="0" y="32" fill="#6E6B7B" font-family="IBM Plex Sans Thai" font-size="10">สถาบันพยาบาลไทย</text>
      </g>

      <rect x="800" y="16" width="140" height="24" rx="12" fill="#FFF3E6"/>
      <text x="870" y="33" text-anchor="middle" fill="#FF9F43" font-family="IBM Plex Sans Thai" font-size="12" font-weight="600">รอตรวจสอบขั้นสุดท้าย</text>

      <g transform="translate(950, 12)">
        <rect width="60" height="32" rx="6" fill="#E0F2F4"/>
        <text x="30" y="22" text-anchor="middle" fill="#007A8C" font-family="IBM Plex Sans Thai" font-size="12" font-weight="600">📄 เอกสาร</text>
        <rect x="68" width="60" height="32" rx="6" fill="#28C76F"/>
        <text x="98" y="22" text-anchor="middle" fill="white" font-family="IBM Plex Sans Thai" font-size="12" font-weight="600">อนุมัติ</text>
      </g>
      <line x1="28" y1="64" x2="1088" y2="64" stroke="#F8F8F8"/>
    </g>

    <!-- Row 2 -->
    <g transform="translate(0, 208)">
      <text x="42" y="24" fill="#1E1E1E" font-family="IBM Plex Sans Thai" font-size="14" font-weight="600">บริษัท พยาบาลสุขใจ จำกัด</text>
      <text x="42" y="42" fill="#6E6B7B" font-family="Inter" font-size="11">ID: OP-2210</text>
      
      <text x="250" y="32" fill="#1E1E1E" font-family="IBM Plex Sans Thai" font-size="14">Operator</text>
      <text x="380" y="32" fill="#6E6B7B" font-family="IBM Plex Sans Thai" font-size="14">- (Independent)</text>
      
      <text x="550" y="32" fill="#6E6B7B" font-family="IBM Plex Sans Thai" font-size="14">-</text>

      <rect x="800" y="16" width="130" height="24" rx="12" fill="#FFF3E6"/>
      <text x="865" y="33" text-anchor="middle" fill="#FF9F43" font-family="IBM Plex Sans Thai" font-size="12" font-weight="600">รอตรวจสอบเอกสาร</text>

      <g transform="translate(950, 12)">
        <rect width="60" height="32" rx="6" fill="#E0F2F4"/>
        <text x="30" y="22" text-anchor="middle" fill="#007A8C" font-family="IBM Plex Sans Thai" font-size="12" font-weight="600">📄 เอกสาร</text>
        <rect x="68" width="60" height="32" rx="6" fill="#28C76F"/>
        <text x="98" y="22" text-anchor="middle" fill="white" font-family="IBM Plex Sans Thai" font-size="12" font-weight="600">อนุมัติ</text>
      </g>
    </g>
  </g>

  <!-- Account Management Section -->
  <g transform="translate(292, 680)">
    <rect width="1116" height="320" rx="16" fill="white" filter="url(#shadow)"/>
    <text x="28" y="48" fill="#1E1E1E" font-family="IBM Plex Sans Thai" font-size="18" font-weight="700">การจัดการบัญชีและสิทธิ์ (Account Suspension &amp; Audit)</text>
    <line x1="28" y1="64" x2="1088" y2="64" stroke="#F8F8F8"/>

    <!-- Table Header -->
    <rect x="28" y="80" width="1060" height="40" rx="4" fill="#F8F8F8"/>
    <text x="42" y="106" fill="#6E6B7B" font-family="IBM Plex Sans Thai" font-size="13" font-weight="600">ชื่อผู้ใช้งาน</text>
    <text x="250" y="106" fill="#6E6B7B" font-family="IBM Plex Sans Thai" font-size="13" font-weight="600">บทบาท</text>
    <text x="450" y="106" fill="#6E6B7B" font-family="IBM Plex Sans Thai" font-size="13" font-weight="600">การทำงานล่าสุด</text>
    <text x="650" y="106" fill="#6E6B7B" font-family="IBM Plex Sans Thai" font-size="13" font-weight="600">สถานะ</text>
    <text x="800" y="106" fill="#6E6B7B" font-family="IBM Plex Sans Thai" font-size="13" font-weight="600">จัดการสิทธิ์</text>

    <!-- Row 1 -->
    <g transform="translate(0, 120)">
      <text x="42" y="24" fill="#1E1E1E" font-family="IBM Plex Sans Thai" font-size="14" font-weight="600">มานะ อดทน</text>
      <text x="42" y="42" fill="#6E6B7B" font-family="Inter" font-size="11">mana.o@gmail.com</text>
      <text x="250" y="32" fill="#1E1E1E" font-family="IBM Plex Sans Thai" font-size="14">Caregiver (สังกัด EN)</text>
      <text x="450" y="32" fill="#1E1E1E" font-family="IBM Plex Sans Thai" font-size="14">2 ชั่วโมงที่แล้ว</text>
      <rect x="650" y="14" width="60" height="24" rx="12" fill="rgba(40, 199, 111, 0.12)"/>
      <text x="680" y="31" text-anchor="middle" fill="#28C76F" font-family="IBM Plex Sans Thai" font-size="12" font-weight="600">ปกติ</text>
      <rect x="800" y="10" width="100" height="32" rx="6" fill="#EA5455"/>
      <text x="850" y="31" text-anchor="middle" fill="white" font-family="IBM Plex Sans Thai" font-size="12" font-weight="600">ระงับสิทธิ์</text>
      <line x1="28" y1="64" x2="1088" y2="64" stroke="#F8F8F8"/>
    </g>

    <!-- Row 2 -->
    <g transform="translate(0, 184)">
      <text x="42" y="24" fill="#1E1E1E" font-family="IBM Plex Sans Thai" font-size="14" font-weight="600">สมพงษ์ ยิ้มแย้ม</text>
      <text x="42" y="42" fill="#6E6B7B" font-family="Inter" font-size="11">sompong.y@outlook.com</text>
      <text x="250" y="32" fill="#1E1E1E" font-family="IBM Plex Sans Thai" font-size="14">Caregiver (สังกัด EN)</text>
      <text x="450" y="32" fill="#1E1E1E" font-family="IBM Plex Sans Thai" font-size="14">เมื่อวานนี้</text>
      <rect x="650" y="14" width="100" height="24" rx="12" fill="rgba(234, 84, 85, 0.12)"/>
      <text x="700" y="31" text-anchor="middle" fill="#EA5455" font-family="IBM Plex Sans Thai" font-size="12" font-weight="600">ระงับชั่วคราว</text>
      <rect x="800" y="10" width="80" height="32" rx="6" fill="#28C76F"/>
      <text x="840" y="31" text-anchor="middle" fill="white" font-family="IBM Plex Sans Thai" font-size="12" font-weight="600">คืนสิทธิ์</text>
    </g>
  </g>

  <!-- Audit Log Float -->
  <rect x="1000" y="1000" width="408" height="48" rx="24" fill="#1E1E1E" filter="url(#shadow)"/>
  <circle cx="1028" cy="1024" r="5" fill="#28C76F"/>
  <circle cx="1028" cy="1024" r="10" stroke="#28C76F" stroke-opacity="0.3"/>
  <text x="1044" y="1028" fill="white" font-family="Inter" font-size="12">Audit Log Active: Tracking User Management Actions (PF-OP-002)</text>

  <!-- Filters -->
  <defs>
    <filter id="shadow" x="-4" y="0" width="100%" height="100%" filterUnits="userSpaceOnUse" color-interpolation-filters="sRGB">
      <feFlood flood-opacity="0" result="BackgroundImageFix"/>
      <feColorMatrix in="SourceAlpha" type="matrix" values="0 0 0 0 0 0 0 0 0 0 0 0 0 0 0 0 0 0 127 0" result="hardAlpha"/>
      <feOffset dy="4"/>
      <feGaussianBlur stdDeviation="6"/>
      <feColorMatrix type="matrix" values="0 0 0 0 0 0 0 0 0 0 0 0 0 0 0 0 0 0 0.03 0"/>
      <feBlend mode="normal" in2="BackgroundImageFix" result="effect1_dropShadow"/>
      <feBlend mode="normal" in="SourceGraphic" in2="effect1_dropShadow" result="shape"/>
    </filter>
  </defs>
</svg>
