<svg width="1440" height="1024" viewBox="0 0 1440 1024" fill="none" xmlns="http://www.w3.org/2000/svg">
  <!-- Background -->
  <rect width="1440" height="1024" fill="#F8F8F8"/>

  <!-- Sidebar -->
  <rect width="260" height="1024" fill="#004D58"/>
  <rect x="0" y="0" width="260" height="108" fill="transparent"/>
  <rect x="108" y="32" width="44" height="44" rx="10" fill="white"/>
  <text x="130" y="62" text-anchor="middle" fill="#007A8C" font-family="Inter" font-size="20" font-weight="700">CD</text>
  <text x="130" y="96" text-anchor="middle" fill="white" font-family="IBM Plex Sans Thai" font-size="20" font-weight="700">CareDee Admin</text>
  <text x="130" y="112" text-anchor="middle" fill="white" fill-opacity="0.5" font-family="IBM Plex Sans Thai" font-size="11" font-weight="400">SYSTEM CONTROL PANEL</text>
  
  <line x1="20" y1="130" x2="240" y2="130" stroke="white" stroke-opacity="0.1"/>

  <!-- Sidebar Menu -->
  <g transform="translate(0, 150)">
    <rect x="0" y="0" width="260" height="48" fill="white" fill-opacity="0.1"/>
    <rect x="0" y="0" width="4" height="48" fill="#FF9F43"/>
    <text x="24" y="30" fill="white" font-family="Inter" font-size="15">📊</text>
    <text x="60" y="30" fill="white" font-family="IBM Plex Sans Thai" font-size="15" font-weight="500">Dashboard</text>

    <g transform="translate(0, 48)">
      <text x="24" y="30" fill="white" fill-opacity="0.7" font-family="Inter" font-size="15">👤</text>
      <text x="60" y="30" fill="white" fill-opacity="0.7" font-family="IBM Plex Sans Thai" font-size="15">บัญชีผู้ดูแล/ผู้ให้บริการ</text>
    </g>
    <g transform="translate(0, 96)">
      <text x="24" y="30" fill="white" fill-opacity="0.7" font-family="Inter" font-size="15">💰</text>
      <text x="60" y="30" fill="white" fill-opacity="0.7" font-family="IBM Plex Sans Thai" font-size="15">จัดการการเงิน &amp; รายได้</text>
    </g>
    <g transform="translate(0, 144)">
      <text x="24" y="30" fill="white" fill-opacity="0.7" font-family="Inter" font-size="15">✨</text>
      <text x="60" y="30" fill="white" fill-opacity="0.7" font-family="IBM Plex Sans Thai" font-size="15">คุณภาพรีวิว &amp; อุทธรณ์</text>
    </g>
    <g transform="translate(0, 192)">
      <text x="24" y="30" fill="white" fill-opacity="0.7" font-family="Inter" font-size="15">📈</text>
      <text x="60" y="30" fill="white" fill-opacity="0.7" font-family="IBM Plex Sans Thai" font-size="15">รายงานระบบ</text>
    </g>
    <g transform="translate(0, 240)">
      <text x="24" y="30" fill="white" fill-opacity="0.7" font-family="Inter" font-size="15">🛡️</text>
      <text x="60" y="30" fill="white" fill-opacity="0.7" font-family="IBM Plex Sans Thai" font-size="15">นโยบาย &amp; PDPA</text>
    </g>
    <g transform="translate(0, 288)">
      <text x="24" y="30" fill="white" fill-opacity="0.7" font-family="Inter" font-size="15">🖥️</text>
      <text x="60" y="30" fill="white" fill-opacity="0.7" font-family="IBM Plex Sans Thai" font-size="15">เฝ้าระวังระบบคลาวด์</text>
    </g>
  </g>

  <line x1="0" y1="920" x2="260" y2="920" stroke="white" stroke-opacity="0.1"/>
  <g transform="translate(0, 940)">
    <text x="24" y="30" fill="white" fill-opacity="0.7" font-family="Inter" font-size="15">🚪</text>
    <text x="60" y="30" fill="white" fill-opacity="0.7" font-family="IBM Plex Sans Thai" font-size="15">ออกจากระบบ</text>
  </g>

  <!-- Main Content -->
  <!-- Header -->
  <g transform="translate(292, 32)">
    <rect width="1116" height="80" rx="16" fill="white" filter="url(#shadow)"/>
    <rect x="24" y="16" width="360" height="48" rx="12" stroke="#B9B9C3" fill="white"/>
    <text x="44" y="46" fill="#B9B9C3" font-family="IBM Plex Sans Thai" font-size="14">ค้นหาข้อมูล, หมายเลขจอง หรือ ชื่อผู้ใช้งาน...</text>
    
    <g transform="translate(900, 16)">
      <text x="140" y="18" text-anchor="end" fill="#1E1E1E" font-family="IBM Plex Sans Thai" font-size="14" font-weight="700">Michael jackson</text>
      <text x="140" y="38" text-anchor="end" fill="#6E6B7B" font-family="IBM Plex Sans Thai" font-size="12">Platform Operator</text>
      <rect x="148" y="26" width="70" height="16" rx="8" fill="#28C76F"/>
      <text x="183" y="38" text-anchor="middle" fill="white" font-family="Inter" font-size="10" font-weight="600">MFA ACTIVE</text>
      <rect x="226" y="0" width="48" height="48" rx="12" fill="#E0F2F4"/>
      <text x="250" y="30" text-anchor="middle" fill="#007A8C" font-family="Inter" font-size="18" font-weight="700">VW</text>
    </g>
  </g>

  <!-- Metric Summary -->
  <g transform="translate(292, 144)">
    <!-- Card 1 -->
    <rect width="261" height="120" rx="16" fill="white" filter="url(#shadow)"/>
    <path d="M0 16C0 7.16344 7.16344 0 16 0H20V120H16C7.16344 120 0 112.837 0 104V16Z" fill="#007A8C"/>
    <text x="24" y="36" fill="#6E6B7B" font-family="IBM Plex Sans Thai" font-size="14" font-weight="500">รายการจองวันนี้</text>
    <text x="24" y="76" fill="#1E1E1E" font-family="IBM Plex Sans Thai" font-size="28" font-weight="700">42 รายการ</text>
    <text x="24" y="100" fill="#28C76F" font-family="IBM Plex Sans Thai" font-size="12" font-weight="500">↑ 12% จากเมื่อวาน</text>

    <!-- Card 2 -->
    <g transform="translate(285, 0)">
      <rect width="261" height="120" rx="16" fill="white" filter="url(#shadow)"/>
      <path d="M0 16C0 7.16344 7.16344 0 16 0H20V120H16C7.16344 120 0 112.837 0 104V16Z" fill="#00CFE8"/>
      <text x="24" y="36" fill="#6E6B7B" font-family="IBM Plex Sans Thai" font-size="14" font-weight="500">รายได้รวม (เดือนนี้)</text>
      <text x="24" y="76" fill="#1E1E1E" font-family="IBM Plex Sans Thai" font-size="28" font-weight="700">฿ 154,200</text>
      <text x="24" y="100" fill="#6E6B7B" font-family="IBM Plex Sans Thai" font-size="12" font-weight="500">หักค่าคอมมิชชันแล้ว</text>
    </g>

    <!-- Card 3 -->
    <g transform="translate(570, 0)">
      <rect width="261" height="120" rx="16" fill="white" filter="url(#shadow)"/>
      <path d="M0 16C0 7.16344 7.16344 0 16 0H20V120H16C7.16344 120 0 112.837 0 104V16Z" fill="#FF9F43"/>
      <text x="24" y="36" fill="#6E6B7B" font-family="IBM Plex Sans Thai" font-size="14" font-weight="500">คะแนนเฉลี่ยแพลตฟอร์ม</text>
      <text x="24" y="76" fill="#1E1E1E" font-family="IBM Plex Sans Thai" font-size="28" font-weight="700">4.8 / 5.0</text>
      <text x="24" y="100" fill="#FF9F43" font-family="IBM Plex Sans Thai" font-size="12" font-weight="500">รอการตัดสินอุทธรณ์ 3 เคส</text>
    </g>

    <!-- Card 4 -->
    <g transform="translate(855, 0)">
      <rect width="261" height="120" rx="16" fill="white" filter="url(#shadow)"/>
      <path d="M0 16C0 7.16344 7.16344 0 16 0H20V120H16C7.16344 120 0 112.837 0 104V16Z" fill="#28C76F"/>
      <text x="24" y="36" fill="#6E6B7B" font-family="IBM Plex Sans Thai" font-size="14" font-weight="500">System Availability</text>
      <text x="24" y="76" fill="#1E1E1E" font-family="IBM Plex Sans Thai" font-size="28" font-weight="700">99.98%</text>
      <text x="24" y="100" fill="#28C76F" font-family="IBM Plex Sans Thai" font-size="12" font-weight="500">สถานะปกติ</text>
    </g>
  </g>

  <!-- Operations Section -->
  <g transform="translate(292, 296)">
    <!-- Left Column: Lists -->
    <g transform="translate(0, 0)">
      <!-- Account Verification Card -->
      <rect width="720" height="320" rx="16" fill="white" filter="url(#shadow)"/>
      <text x="28" y="48" fill="#1E1E1E" font-family="IBM Plex Sans Thai" font-size="18" font-weight="700">รายการรออนุมัติ (Caregiver/Operator)</text>
      <text x="692" y="48" text-anchor="end" fill="#007A8C" font-family="IBM Plex Sans Thai" font-size="13" font-weight="700">ดูทั้งหมด</text>
      <line x1="28" y1="64" x2="692" y2="64" stroke="#F8F8F8"/>
      
      <!-- Table Header -->
      <rect x="28" y="80" width="664" height="40" rx="4" fill="#F8F8F8"/>
      <text x="42" y="106" fill="#6E6B7B" font-family="IBM Plex Sans Thai" font-size="13" font-weight="600">ชื่อ-นามสกุล</text>
      <text x="180" y="106" fill="#6E6B7B" font-family="IBM Plex Sans Thai" font-size="13" font-weight="600">ประเภท</text>
      <text x="300" y="106" fill="#6E6B7B" font-family="IBM Plex Sans Thai" font-size="13" font-weight="600">ใบรับรอง (TI)</text>
      <text x="450" y="106" fill="#6E6B7B" font-family="IBM Plex Sans Thai" font-size="13" font-weight="600">สถานะ</text>
      <text x="580" y="106" fill="#6E6B7B" font-family="IBM Plex Sans Thai" font-size="13" font-weight="600">จัดการ</text>

      <!-- Row 1 -->
      <g transform="translate(0, 120)">
        <text x="42" y="32" fill="#1E1E1E" font-family="IBM Plex Sans Thai" font-size="14" font-weight="600">สมชาย ใจดี</text>
        <text x="180" y="32" fill="#1E1E1E" font-family="IBM Plex Sans Thai" font-size="14">Caregiver</text>
        <text x="300" y="32" fill="#28C76F" font-family="IBM Plex Sans Thai" font-size="14" font-weight="600">✓ Verified</text>
        <rect x="450" y="14" width="90" height="24" rx="12" fill="#FFF3E6"/>
        <text x="495" y="31" text-anchor="middle" fill="#FF9F43" font-family="IBM Plex Sans Thai" font-size="12" font-weight="600">รอดำเนินการ</text>
        <rect x="580" y="10" width="60" height="32" rx="8" fill="#28C76F"/>
        <text x="610" y="31" text-anchor="middle" fill="white" font-family="IBM Plex Sans Thai" font-size="13" font-weight="600">อนุมัติ</text>
        <rect x="648" y="10" width="44" height="32" rx="8" fill="#E0F2F4"/>
        <text x="670" y="31" text-anchor="middle" fill="#007A8C" font-family="IBM Plex Sans Thai" font-size="13" font-weight="600">ตรวจ</text>
        <line x1="28" y1="56" x2="692" y2="56" stroke="#F8F8F8"/>
      </g>

      <!-- Row 2 -->
      <g transform="translate(0, 176)">
        <text x="42" y="32" fill="#1E1E1E" font-family="IBM Plex Sans Thai" font-size="14" font-weight="600">บริษัท บริบาลไทย จำกัด</text>
        <text x="180" y="32" fill="#1E1E1E" font-family="IBM Plex Sans Thai" font-size="14">Operator</text>
        <text x="300" y="32" fill="#6E6B7B" font-family="IBM Plex Sans Thai" font-size="14">รอเชื่อมโยง</text>
        <rect x="450" y="14" width="90" height="24" rx="12" fill="#FFF3E6"/>
        <text x="495" y="31" text-anchor="middle" fill="#FF9F43" font-family="IBM Plex Sans Thai" font-size="12" font-weight="600">รอดำเนินการ</text>
        <rect x="580" y="10" width="112" height="32" rx="8" fill="#E0F2F4"/>
        <text x="636" y="31" text-anchor="middle" fill="#007A8C" font-family="IBM Plex Sans Thai" font-size="13" font-weight="600">ตรวจเอกสาร</text>
        <line x1="28" y1="56" x2="692" y2="56" stroke="#F8F8F8"/>
      </g>

      <!-- Appeal Requests Card -->
      <g transform="translate(0, 352)">
        <rect width="720" height="240" rx="16" fill="white" filter="url(#shadow)"/>
        <text x="28" y="48" fill="#1E1E1E" font-family="IBM Plex Sans Thai" font-size="18" font-weight="700">รายการอุทธรณ์รีวิว (Appeal Requests)</text>
        <text x="692" y="48" text-anchor="end" fill="#EA5455" font-family="IBM Plex Sans Thai" font-size="12" font-weight="700">SLA: ตรวจสอบภายใน 3 วัน</text>
        <line x1="28" y1="64" x2="692" y2="64" stroke="#F8F8F8"/>

        <rect x="28" y="80" width="664" height="40" rx="4" fill="#F8F8F8"/>
        <text x="42" y="106" fill="#6E6B7B" font-family="IBM Plex Sans Thai" font-size="13" font-weight="600">ID รายการ</text>
        <text x="180" y="106" fill="#6E6B7B" font-family="IBM Plex Sans Thai" font-size="13" font-weight="600">ผู้ยื่นคำร้อง</text>
        <text x="350" y="106" fill="#6E6B7B" font-family="IBM Plex Sans Thai" font-size="13" font-weight="600">วันที่ยื่น</text>
        <text x="480" y="106" fill="#6E6B7B" font-family="IBM Plex Sans Thai" font-size="13" font-weight="600">เหลือเวลา</text>
        <text x="600" y="106" fill="#6E6B7B" font-family="IBM Plex Sans Thai" font-size="13" font-weight="600">จัดการ</text>

        <g transform="translate(0, 120)">
          <text x="42" y="32" fill="#007A8C" font-family="Inter" font-size="14" font-weight="700">#BK-9902</text>
          <text x="180" y="32" fill="#1E1E1E" font-family="IBM Plex Sans Thai" font-size="14">รวีวรรณ (Caregiver)</text>
          <text x="350" y="32" fill="#1E1E1E" font-family="IBM Plex Sans Thai" font-size="14">11 พ.ค. 2026</text>
          <text x="480" y="32" fill="#EA5455" font-family="IBM Plex Sans Thai" font-size="14" font-weight="700">1 วัน</text>
          <rect x="600" y="10" width="80" height="32" rx="8" fill="#E0F2F4"/>
          <text x="640" y="31" text-anchor="middle" fill="#007A8C" font-family="IBM Plex Sans Thai" font-size="13" font-weight="600">ตัดสินผล</text>
        </g>
      </g>
    </g>

    <!-- Right Column: Widgets -->
    <g transform="translate(752, 0)">
      <!-- System Monitor Card -->
      <rect width="364" height="320" rx="16" fill="white" filter="url(#shadow)"/>
      <text x="182" y="48" text-anchor="middle" fill="#1E1E1E" font-family="IBM Plex Sans Thai" font-size="18" font-weight="700">สถานะทรัพยากรระบบ</text>
      
      <!-- Health Circle -->
      <circle cx="182" cy="150" r="70" stroke="#F8F8F8" stroke-width="12" fill="none"/>
      <path d="M182 80 A 70 70 0 0 1 252 150" stroke="#28C76F" stroke-width="12" fill="none" stroke-linecap="round"/>
      <text x="182" y="155" text-anchor="middle" fill="#1E1E1E" font-family="Inter" font-size="32" font-weight="700">45%</text>
      <text x="182" y="175" text-anchor="middle" fill="#6E6B7B" font-family="IBM Plex Sans Thai" font-size="11" font-weight="400">CPU LOAD</text>
      
      <text x="182" y="245" text-anchor="middle" fill="#1E1E1E" font-family="IBM Plex Sans Thai" font-size="14" font-weight="600">Memory Usage: 3.2 / 8 GB</text>
      
      <rect x="40" y="260" width="284" height="40" rx="10" fill="#E0F2F4"/>
      <text x="182" y="285" text-anchor="middle" fill="#007A8C" font-family="IBM Plex Sans Thai" font-size="12">
        <tspan font-weight="700">Elastic Scaling:</tspan> สแตนด์บาย (Threshold: 70%)
      </text>

      <!-- Quick Reports Card -->
      <g transform="translate(0, 352)">
        <rect width="364" height="240" rx="16" fill="white" filter="url(#shadow)"/>
        <text x="28" y="48" fill="#1E1E1E" font-family="IBM Plex Sans Thai" font-size="18" font-weight="700">สร้างรายงานด่วน</text>
        
        <rect x="24" y="70" width="316" height="44" rx="8" fill="#E0F2F4"/>
        <text x="44" y="98" fill="#007A8C" font-family="IBM Plex Sans Thai" font-size="13" font-weight="600">📊 สรุปรายได้ (CSV)</text>
        
        <rect x="24" y="124" width="316" height="44" rx="8" fill="#E0F2F4"/>
        <text x="44" y="152" fill="#007A8C" font-family="IBM Plex Sans Thai" font-size="13" font-weight="600">📋 สถิติทักษะตลาด (XLSX)</text>
        
        <rect x="24" y="178" width="316" height="44" rx="8" fill="#FF9F43"/>
        <text x="44" y="206" fill="white" font-family="IBM Plex Sans Thai" font-size="13" font-weight="600">⚙️ ตั้งค่าคอมมิชชัน</text>
      </g>
    </g>
  </g>

  <!-- Audit Log Float -->
  <rect x="1080" y="940" width="328" height="48" rx="24" fill="#1E1E1E" filter="url(#shadow)"/>
  <circle cx="1108" cy="964" r="5" fill="#28C76F"/>
  <circle cx="1108" cy="964" r="10" stroke="#28C76F" stroke-opacity="0.3"/>
  <text x="1124" y="968" fill="white" font-family="Inter" font-size="12">Audit Log Recording Enabled (3 Years)</text>

  <!-- Filters -->
  <defs>
    <filter id="shadow" x="-4" y="0" width="100%" height="100%" filterUnits="userSpaceOnUse" color-interpolation-filters="sRGB">
      <feFlood flood-opacity="0" result="BackgroundImageFix"/>
      <feColorMatrix in="SourceAlpha" type="matrix" values="0 0 0 0 0 0 0 0 0 0 0 0 0 0 0 0 0 0 127 0" result="hardAlpha"/>
      <feOffset dy="4"/>
      <feGaussianBlur stdDeviation="6"/>
      <feColorMatrix type="matrix" values="0 0 0 0 0 0 0 0 0 0 0 0 0 0 0 0 0 0 0.03 0"/>
      <feBlend mode="normal" in2="BackgroundImageFix" result="effect1_dropShadow"/>
      <feBlend mode="normal" in="SourceGraphic" in2="effect1_dropShadow" result="shape"/>
    </filter>
  </defs>
</svg>
