<svg width="1440" height="1120" viewBox="0 0 1440 1120" fill="none" xmlns="http://www.w3.org/2000/svg">
  <!-- Background -->
  <rect width="1440" height="1120" fill="#F8F8F8"/>

  <!-- Sidebar -->
  <rect width="260" height="1120" fill="#004D58"/>
  <rect x="108" y="32" width="44" height="44" rx="10" fill="white"/>
  <text x="130" y="62" text-anchor="middle" fill="#007A8C" font-family="Inter" font-size="20" font-weight="700">CD</text>
  <text x="130" y="96" text-anchor="middle" fill="white" font-family="IBM Plex Sans Thai" font-size="20" font-weight="700">CareDee Admin</text>
  <text x="130" y="112" text-anchor="middle" fill="white" fill-opacity="0.5" font-family="IBM Plex Sans Thai" font-size="11" font-weight="400">SYSTEM CONTROL PANEL</text>
  
  <line x1="20" y1="130" x2="240" y2="130" stroke="white" stroke-opacity="0.1"/>

  <!-- Sidebar Menu -->
  <g transform="translate(0, 150)">
    <!-- Dashboard -->
    <g transform="translate(0, 0)">
        <text x="24" y="30" fill="white" fill-opacity="0.7" font-family="Inter" font-size="15">📊</text>
        <text x="60" y="30" fill="white" fill-opacity="0.7" font-family="IBM Plex Sans Thai" font-size="15">Dashboard</text>
    </g>

    <g transform="translate(0, 48)">
        <text x="24" y="30" fill="white" fill-opacity="0.7" font-family="Inter" font-size="15">👤</text>
        <text x="60" y="30" fill="white" fill-opacity="0.7" font-family="IBM Plex Sans Thai" font-size="15">บัญชีผู้ดูแล/ผู้ให้บริการ</text>
    </g>

    <!-- Active Item: Finance & Revenue Management -->
    <g transform="translate(0, 96)">
        <rect x="0" y="0" width="260" height="48" fill="white" fill-opacity="0.1"/>
        <rect x="0" y="0" width="4" height="48" fill="#FF9F43"/>
        <text x="24" y="30" fill="white" font-family="Inter" font-size="15">💰</text>
        <text x="60" y="30" fill="white" font-family="IBM Plex Sans Thai" font-size="15" font-weight="500">จัดการการเงิน &amp; รายได้</text>
    </g>

    <g transform="translate(0, 144)">
      <text x="24" y="30" fill="white" fill-opacity="0.7" font-family="Inter" font-size="15">✨</text>
      <text x="60" y="30" fill="white" fill-opacity="0.7" font-family="IBM Plex Sans Thai" font-size="15">คุณภาพรีวิว &amp; อุทธรณ์</text>
    </g>
    <g transform="translate(0, 192)">
      <text x="24" y="30" fill="white" fill-opacity="0.7" font-family="Inter" font-size="15">📈</text>
      <text x="60" y="30" fill="white" fill-opacity="0.7" font-family="IBM Plex Sans Thai" font-size="15">รายงานระบบ</text>
    </g>
    <g transform="translate(0, 240)">
      <text x="24" y="30" fill="white" fill-opacity="0.7" font-family="Inter" font-size="15">🛡️</text>
      <text x="60" y="30" fill="white" fill-opacity="0.7" font-family="IBM Plex Sans Thai" font-size="15">นโยบาย &amp; PDPA</text>
    </g>
    <g transform="translate(0, 288)">
      <text x="24" y="30" fill="white" fill-opacity="0.7" font-family="Inter" font-size="15">🖥️</text>
      <text x="60" y="30" fill="white" fill-opacity="0.7" font-family="IBM Plex Sans Thai" font-size="15">เฝ้าระวังระบบคลาวด์</text>
    </g>
  </g>

  <line x1="0" y1="920" x2="260" y2="920" stroke="white" stroke-opacity="0.1"/>
  <g transform="translate(0, 940)">
    <text x="24" y="30" fill="white" fill-opacity="0.7" font-family="Inter" font-size="15">🚪</text>
    <text x="60" y="30" fill="white" fill-opacity="0.7" font-family="IBM Plex Sans Thai" font-size="15">ออกจากระบบ</text>
  </g>

  <!-- Main Content -->
  <!-- Header -->
  <g transform="translate(292, 32)">
    <rect width="1116" height="80" rx="16" fill="white" filter="url(#shadow)"/>
    <rect x="24" y="16" width="360" height="48" rx="12" stroke="#B9B9C3" fill="white"/>
    <text x="44" y="46" fill="#B9B9C3" font-family="IBM Plex Sans Thai" font-size="14">ค้นหารายการชำระเงิน, Transaction ID หรือชื่อผู้รับเงิน...</text>
    
    <g transform="translate(900, 16)">
      <text x="140" y="18" text-anchor="end" fill="#1E1E1E" font-family="IBM Plex Sans Thai" font-size="14" font-weight="700">Michael jackson</text>
      <text x="140" y="38" text-anchor="end" fill="#6E6B7B" font-family="IBM Plex Sans Thai" font-size="12">Platform Operator</text>
      <rect x="148" y="26" width="70" height="16" rx="8" fill="#28C76F"/>
      <text x="183" y="38" text-anchor="middle" fill="white" font-family="Inter" font-size="10" font-weight="600">MFA ACTIVE</text>
      <rect x="226" y="0" width="48" height="48" rx="12" fill="#E0F2F4"/>
      <text x="250" y="30" text-anchor="middle" fill="#007A8C" font-family="Inter" font-size="18" font-weight="700">VW</text>
    </g>
  </g>

  <!-- Revenue Summary (Metrics) -->
  <g transform="translate(292, 144)">
    <!-- Card 1 -->
    <rect width="261" height="120" rx="16" fill="white" filter="url(#shadow)"/>
    <path d="M0 16C0 7.16344 7.16344 0 16 0H20V120H16C7.16344 120 0 112.837 0 104V16Z" fill="#007A8C"/>
    <text x="24" y="36" fill="#6E6B7B" font-family="IBM Plex Sans Thai" font-size="14" font-weight="500">ยอดจองรวม (Gross)</text>
    <text x="24" y="76" fill="#1E1E1E" font-family="IBM Plex Sans Thai" font-size="28" font-weight="700">฿ 1,240,500</text>
    <text x="24" y="100" fill="#28C76F" font-family="IBM Plex Sans Thai" font-size="12" font-weight="500">↑ 15% จากเดือนที่แล้ว</text>

    <!-- Card 2 -->
    <g transform="translate(285, 0)">
      <rect width="261" height="120" rx="16" fill="white" filter="url(#shadow)"/>
      <path d="M0 16C0 7.16344 7.16344 0 16 0H20V120H16C7.16344 120 0 112.837 0 104V16Z" fill="#00CFE8"/>
      <text x="24" y="36" fill="#6E6B7B" font-family="IBM Plex Sans Thai" font-size="14" font-weight="500">รายได้แพลตฟอร์ม (Revenue)</text>
      <text x="24" y="76" fill="#1E1E1E" font-family="IBM Plex Sans Thai" font-size="28" font-weight="700">฿ 124,050</text>
      <text x="24" y="100" fill="#6E6B7B" font-family="IBM Plex Sans Thai" font-size="12" font-weight="500">Commission สะสม (10%)</text>
    </g>

    <!-- Card 3 -->
    <g transform="translate(570, 0)">
      <rect width="261" height="120" rx="16" fill="white" filter="url(#shadow)"/>
      <path d="M0 16C0 7.16344 7.16344 0 16 0H20V120H16C7.16344 120 0 112.837 0 104V16Z" fill="#FF9F43"/>
      <text x="24" y="36" fill="#6E6B7B" font-family="IBM Plex Sans Thai" font-size="14" font-weight="500">ยอดรอโอน (Pending Payout)</text>
      <text x="24" y="76" fill="#1E1E1E" font-family="IBM Plex Sans Thai" font-size="28" font-weight="700">฿ 45,200</text>
      <text x="24" y="100" fill="#FF9F43" font-family="IBM Plex Sans Thai" font-size="12" font-weight="500">6 รายการรอดำเนินการ</text>
    </g>

    <!-- Card 4 -->
    <g transform="translate(855, 0)">
      <rect width="261" height="120" rx="16" fill="white" filter="url(#shadow)"/>
      <path d="M0 16C0 7.16344 7.16344 0 16 0H20V120H16C7.16344 120 0 112.837 0 104V16Z" fill="#28C76F"/>
      <text x="24" y="36" fill="#6E6B7B" font-family="IBM Plex Sans Thai" font-size="14" font-weight="500">โอนสำเร็จแล้ว (Paid)</text>
      <text x="24" y="76" fill="#1E1E1E" font-family="IBM Plex Sans Thai" font-size="28" font-weight="700">฿ 1,071,250</text>
      <text x="24" y="100" fill="#28C76F" font-family="IBM Plex Sans Thai" font-size="12" font-weight="500">หักค่าคอมฯ และค่าธรรมเนียมแล้ว</text>
    </g>
  </g>

  <!-- Finance Operations Section -->
  <g transform="translate(292, 296)">
    <!-- Left Column: Transactions & Refunds -->
    <g transform="translate(0, 0)">
      <!-- Payout Card -->
      <rect width="720" height="420" rx="16" fill="white" filter="url(#shadow)"/>
      <text x="28" y="48" fill="#1E1E1E" font-family="IBM Plex Sans Thai" font-size="18" font-weight="700">รายการชำระเงินและการโอน (Payout &amp; Transactions)</text>
      
      <g transform="translate(480, 24)">
        <rect width="100" height="32" rx="8" stroke="#B9B9C3" fill="white"/>
        <text x="50" y="21" text-anchor="middle" fill="#6E6B7B" font-family="IBM Plex Sans Thai" font-size="13">กรองข้อมูล</text>
        <rect x="110" width="110" height="32" rx="8" fill="#E0F2F4"/>
        <text x="165" y="21" text-anchor="middle" fill="#007A8C" font-family="IBM Plex Sans Thai" font-size="13" font-weight="600">Export CSV</text>
      </g>
      
      <line x1="28" y1="72" x2="692" y2="72" stroke="#F8F8F8"/>

      <!-- Table Header -->
      <rect x="28" y="88" width="664" height="40" rx="4" fill="#F8F8F8"/>
      <text x="42" y="114" fill="#6E6B7B" font-family="IBM Plex Sans Thai" font-size="13" font-weight="600">ID / วันที่</text>
      <text x="160" y="114" fill="#6E6B7B" font-family="IBM Plex Sans Thai" font-size="13" font-weight="600">ผู้รับเงิน (Provider)</text>
      <text x="340" y="114" fill="#6E6B7B" font-family="IBM Plex Sans Thai" font-size="13" font-weight="600">ยอดจอง</text>
      <text x="430" y="114" fill="#6E6B7B" font-family="IBM Plex Sans Thai" font-size="13" font-weight="600">สุทธิ (90%)</text>
      <text x="530" y="114" fill="#6E6B7B" font-family="IBM Plex Sans Thai" font-size="13" font-weight="600">STATUS</text>
      <text x="630" y="114" fill="#6E6B7B" font-family="IBM Plex Sans Thai" font-size="13" font-weight="600">PAYOUT</text>

      <!-- Row 1 -->
      <g transform="translate(0, 128)">
        <text x="42" y="24" fill="#007A8C" font-family="Inter" font-size="14" font-weight="700">#BK-9902</text>
        <text x="42" y="42" fill="#6E6B7B" font-family="IBM Plex Sans Thai" font-size="11">12 พ.ค. 26 14:30</text>
        
        <text x="160" y="24" fill="#1E1E1E" font-family="IBM Plex Sans Thai" font-size="14" font-weight="600">รวีวรรณ ใจดี</text>
        <text x="160" y="42" fill="#6E6B7B" font-family="Inter" font-size="11">K-Bank xxxx-4567</text>
        
        <text x="340" y="32" fill="#1E1E1E" font-family="IBM Plex Sans Thai" font-size="14">฿ 2,500</text>
        <text x="430" y="32" fill="#1E1E1E" font-family="IBM Plex Sans Thai" font-size="14" font-weight="700">฿ 2,250</text>
        
        <rect x="530" y="16" width="70" height="24" rx="12" fill="rgba(40, 199, 111, 0.12)"/>
        <text x="565" y="33" text-anchor="middle" fill="#28C76F" font-family="Inter" font-size="11" font-weight="600">Success 🔗</text>
        
        <rect x="620" y="16" width="60" height="24" rx="12" fill="#E0F2F4"/>
        <text x="650" y="33" text-anchor="middle" fill="#007A8C" font-family="IBM Plex Sans Thai" font-size="11" font-weight="600">โอนแล้ว</text>
        <line x1="28" y1="60" x2="692" y2="60" stroke="#F8F8F8"/>
      </g>

      <!-- Row 2 -->
      <g transform="translate(0, 188)">
        <text x="42" y="24" fill="#007A8C" font-family="Inter" font-size="14" font-weight="700">#BK-9915</text>
        <text x="42" y="42" fill="#6E6B7B" font-family="IBM Plex Sans Thai" font-size="11">12 พ.ค. 26 16:15</text>
        <text x="160" y="24" fill="#1E1E1E" font-family="IBM Plex Sans Thai" font-size="14" font-weight="600">สมชาย บริบาล</text>
        <text x="160" y="42" fill="#6E6B7B" font-family="Inter" font-size="11">SCB xxxx-8890</text>
        <text x="340" y="32" fill="#1E1E1E" font-family="IBM Plex Sans Thai" font-size="14">฿ 1,800</text>
        <text x="430" y="32" fill="#1E1E1E" font-family="IBM Plex Sans Thai" font-size="14" font-weight="700">฿ 1,620</text>
        <rect x="530" y="16" width="70" height="24" rx="12" fill="rgba(40, 199, 111, 0.12)"/>
        <text x="565" y="33" text-anchor="middle" fill="#28C76F" font-family="Inter" font-size="11" font-weight="600">Success 🔗</text>
        <rect x="620" y="12" width="72" height="32" rx="8" fill="#28C76F"/>
        <text x="656" y="33" text-anchor="middle" fill="white" font-family="IBM Plex Sans Thai" font-size="11" font-weight="600">ยืนยันโอน</text>
        <line x1="28" y1="60" x2="692" y2="60" stroke="#F8F8F8"/>
      </g>

      <!-- Row 3 -->
      <g transform="translate(0, 248)">
        <text x="42" y="24" fill="#007A8C" font-family="Inter" font-size="14" font-weight="700">#BK-9920</text>
        <text x="42" y="42" fill="#6E6B7B" font-family="IBM Plex Sans Thai" font-size="11">12 พ.ค. 26 17:00</text>
        <text x="160" y="24" fill="#1E1E1E" font-family="IBM Plex Sans Thai" font-size="14" font-weight="600">บจก. แคร์ดีพลัส</text>
        <text x="160" y="42" fill="#6E6B7B" font-family="Inter" font-size="11">BBL xxxx-1122</text>
        <text x="340" y="32" fill="#1E1E1E" font-family="IBM Plex Sans Thai" font-size="14">฿ 5,000</text>
        <text x="430" y="32" fill="#1E1E1E" font-family="IBM Plex Sans Thai" font-size="14" font-weight="700">฿ 4,500</text>
        <rect x="530" y="16" width="70" height="24" rx="12" fill="#FFF3E6"/>
        <text x="565" y="33" text-anchor="middle" fill="#FF9F43" font-family="Inter" font-size="11" font-weight="600">Pending</text>
        <text x="620" y="33" fill="#B9B9C3" font-family="IBM Plex Sans Thai" font-size="11">รอชำระเงิน</text>
      </g>

      <!-- Refund Management Card -->
      <g transform="translate(0, 452)">
        <rect width="720" height="280" rx="16" fill="white" filter="url(#shadow)"/>
        <text x="28" y="48" fill="#1E1E1E" font-family="IBM Plex Sans Thai" font-size="18" font-weight="700">จัดการคืนเงิน (Refund Management)</text>
        <text x="692" y="48" text-anchor="end" fill="#EA5455" font-family="IBM Plex Sans Thai" font-size="12" font-weight="700">เคสอุทธรณ์/ยกเลิก</text>
        <line x1="28" y1="72" x2="692" y2="72" stroke="#F8F8F8"/>

        <!-- Table Header -->
        <rect x="28" y="88" width="664" height="40" rx="4" fill="#F8F8F8"/>
        <text x="42" y="114" fill="#6E6B7B" font-family="IBM Plex Sans Thai" font-size="13" font-weight="600">ID รายการ</text>
        <text x="160" y="114" fill="#6E6B7B" font-family="IBM Plex Sans Thai" font-size="13" font-weight="600">เหตุผลการยกเลิก</text>
        <text x="420" y="114" fill="#6E6B7B" font-family="IBM Plex Sans Thai" font-size="13" font-weight="600">ยอดคืนลูกค้า</text>
        <text x="530" y="114" fill="#6E6B7B" font-family="IBM Plex Sans Thai" font-size="13" font-weight="600">สถานะ</text>
        <text x="610" y="114" fill="#6E6B7B" font-family="IBM Plex Sans Thai" font-size="13" font-weight="600">จัดการ</text>

        <!-- Row 1 -->
        <g transform="translate(0, 128)">
          <text x="42" y="32" fill="#007A8C" font-family="Inter" font-size="14" font-weight="700">#BK-9880</text>
          <text x="160" y="32" fill="#1E1E1E" font-family="IBM Plex Sans Thai" font-size="14">ผู้ให้บริการไม่มาตามนัด (No-show)</text>
          <text x="420" y="32" fill="#EA5455" font-family="IBM Plex Sans Thai" font-size="14" font-weight="700">฿ 1,500</text>
          <rect x="530" y="16" width="70" height="24" rx="12" fill="#FFF3E6"/>
          <text x="565" y="33" text-anchor="middle" fill="#FF9F43" font-family="IBM Plex Sans Thai" font-size="11" font-weight="600">รออนุมัติ</text>
          <rect x="610" y="12" width="82" height="32" rx="8" fill="#28C76F"/>
          <text x="651" y="33" text-anchor="middle" fill="white" font-family="IBM Plex Sans Thai" font-size="11" font-weight="600">อนุมัติคืนเงิน</text>
          <line x1="28" y1="60" x2="692" y2="60" stroke="#F8F8F8"/>
        </g>

        <!-- Row 2 -->
        <g transform="translate(0, 188)">
          <text x="42" y="32" fill="#007A8C" font-family="Inter" font-size="14" font-weight="700">#BK-9875</text>
          <text x="160" y="32" fill="#1E1E1E" font-family="IBM Plex Sans Thai" font-size="14">ยกเลิกตามเงื่อนไข (ล่วงหน้า 24 ชม.)</text>
          <text x="420" y="32" fill="#EA5455" font-family="IBM Plex Sans Thai" font-size="14" font-weight="700">฿ 800</text>
          <rect x="530" y="16" width="80" height="24" rx="12" fill="rgba(40, 199, 111, 0.12)"/>
          <text x="570" y="33" text-anchor="middle" fill="#28C76F" font-family="IBM Plex Sans Thai" font-size="11" font-weight="600">คืนเงินสำเร็จ</text>
          <rect x="620" y="12" width="72" height="32" rx="8" fill="#E0F2F4"/>
          <text x="656" y="33" text-anchor="middle" fill="#007A8C" font-family="IBM Plex Sans Thai" font-size="11" font-weight="600">รายละเอียด</text>
        </g>
      </g>
    </g>

    <!-- Right Column: Settings & Reports -->
    <g transform="translate(752, 0)">
      <!-- Parameter Settings Card -->
      <rect width="364" height="420" rx="16" fill="white" filter="url(#shadow)"/>
      <text x="28" y="48" fill="#1E1E1E" font-family="IBM Plex Sans Thai" font-size="18" font-weight="700">ตั้งค่าค่าธรรมเนียม (Global Settings)</text>
      
      <g transform="translate(28, 80)">
        <text y="0" fill="#6E6B7B" font-family="IBM Plex Sans Thai" font-size="13" font-weight="500">Commission Rate (%)</text>
        <rect y="10" width="308" height="44" rx="8" stroke="#B9B9C3" fill="white"/>
        <text x="12" y="38" fill="#1E1E1E" font-family="Inter" font-size="14">10</text>
      </g>

      <g transform="translate(28, 160)">
        <text y="0" fill="#6E6B7B" font-family="IBM Plex Sans Thai" font-size="13" font-weight="500">ค่าธรรมเนียมการโอน (Fixed ฿)</text>
        <rect y="10" width="308" height="44" rx="8" stroke="#B9B9C3" fill="white"/>
        <text x="12" y="38" fill="#Inter" font-size="14">15</text>
      </g>

      <g transform="translate(28, 240)">
        <text y="0" fill="#6E6B7B" font-family="IBM Plex Sans Thai" font-size="13" font-weight="500">ยอดถอนขั้นต่ำ (฿)</text>
        <rect y="10" width="308" height="44" rx="8" stroke="#B9B9C3" fill="white"/>
        <text x="12" y="38" fill="#Inter" font-size="14">500</text>
      </g>

      <rect x="28" y="320" width="308" height="48" rx="8" fill="#28C76F"/>
      <text x="182" y="350" text-anchor="middle" fill="white" font-family="IBM Plex Sans Thai" font-size="14" font-weight="700">บันทึกการตั้งค่า</text>
      
      <text x="182" y="390" text-anchor="middle" fill="#6E6B7B" font-family="IBM Plex Sans Thai" font-size="11">* การเปลี่ยนแปลงจะมีผลกับรายการจองใหม่เท่านั้น</text>

      <!-- Reports Card -->
      <g transform="translate(0, 452)">
        <rect width="364" height="280" rx="16" fill="white" filter="url(#shadow)"/>
        <text x="28" y="48" fill="#1E1E1E" font-family="IBM Plex Sans Thai" font-size="18" font-weight="700">รายงานการเงิน</text>
        
        <rect x="24" y="70" width="316" height="44" rx="8" fill="#E0F2F4"/>
        <text x="44" y="98" fill="#007A8C" font-family="IBM Plex Sans Thai" font-size="13" font-weight="600">📅 รายงานภาษี (Monthly)</text>
        
        <rect x="24" y="124" width="316" height="44" rx="8" fill="#E0F2F4"/>
        <text x="44" y="152" fill="#007A8C" font-family="IBM Plex Sans Thai" font-size="13" font-weight="600">🏦 สรุปยอดโอนธนาคาร (Batch)</text>
        
        <rect x="24" y="178" width="316" height="44" rx="8" fill="#FF9F43"/>
        <text x="44" y="206" fill="white" font-family="IBM Plex Sans Thai" font-size="13" font-weight="600">📉 วิเคราะห์แนวโน้มรายได้</text>
      </g>
    </g>
  </g>

  <!-- Audit Log Float -->
  <rect x="960" y="1040" width="448" height="48" rx="24" fill="#1E1E1E" filter="url(#shadow)"/>
  <circle cx="988" cy="1064" r="5" fill="#28C76F"/>
  <circle cx="988" cy="1064" r="10" stroke="#28C76F" stroke-opacity="0.3"/>
  <text x="1004" y="1068" fill="white" font-family="Inter" font-size="12">Finance Audit Logging Active (Secured Transaction Monitoring)</text>

  <!-- Filters -->
  <defs>
    <filter id="shadow" x="-4" y="0" width="100%" height="100%" filterUnits="userSpaceOnUse" color-interpolation-filters="sRGB">
      <feFlood flood-opacity="0" result="BackgroundImageFix"/>
      <feColorMatrix in="SourceAlpha" type="matrix" values="0 0 0 0 0 0 0 0 0 0 0 0 0 0 0 0 0 0 127 0" result="hardAlpha"/>
      <feOffset dy="4"/>
      <feGaussianBlur stdDeviation="6"/>
      <feColorMatrix type="matrix" values="0 0 0 0 0 0 0 0 0 0 0 0 0 0 0 0 0 0 0.03 0"/>
      <feBlend mode="normal" in2="BackgroundImageFix" result="effect1_dropShadow"/>
      <feBlend mode="normal" in="SourceGraphic" in2="effect1_dropShadow" result="shape"/>
    </filter>
  </defs>
</svg>
