<svg width="1440" height="1200" viewBox="0 0 1440 1200" fill="none" xmlns="http://www.w3.org/2000/svg">
  <!-- Background -->
  <rect width="1440" height="1200" fill="#F8F8F8"/>

  <!-- Sidebar -->
  <rect width="260" height="1200" fill="#004D58"/>
  <rect x="108" y="32" width="44" height="44" rx="10" fill="white"/>
  <text x="130" y="62" text-anchor="middle" fill="#007A8C" font-family="Inter" font-size="20" font-weight="700">CD</text>
  <text x="130" y="96" text-anchor="middle" fill="white" font-family="IBM Plex Sans Thai" font-size="20" font-weight="700">CareDee Admin</text>
  <text x="130" y="112" text-anchor="middle" fill="white" fill-opacity="0.5" font-family="IBM Plex Sans Thai" font-size="11" font-weight="400">SYSTEM CONTROL PANEL</text>
  
  <line x1="20" y1="130" x2="240" y2="130" stroke="white" stroke-opacity="0.1"/>

  <!-- Sidebar Menu -->
  <g transform="translate(0, 150)">
    <!-- Dashboard -->
    <g transform="translate(0, 0)">
        <text x="24" y="30" fill="white" fill-opacity="0.7" font-family="Inter" font-size="15">📊</text>
        <text x="60" y="30" fill="white" fill-opacity="0.7" font-family="IBM Plex Sans Thai" font-size="15">Dashboard</text>
    </g>
    <g transform="translate(0, 48)">
        <text x="24" y="30" fill="white" fill-opacity="0.7" font-family="Inter" font-size="15">👤</text>
        <text x="60" y="30" fill="white" fill-opacity="0.7" font-family="IBM Plex Sans Thai" font-size="15">บัญชีผู้ดูแล/ผู้ให้บริการ</text>
    </g>
    <g transform="translate(0, 96)">
        <text x="24" y="30" fill="white" fill-opacity="0.7" font-family="Inter" font-size="15">💰</text>
        <text x="60" y="30" fill="white" fill-opacity="0.7" font-family="IBM Plex Sans Thai" font-size="15">จัดการการเงิน &amp; รายได้</text>
    </g>
    <g transform="translate(0, 144)">
      <text x="24" y="30" fill="white" fill-opacity="0.7" font-family="Inter" font-size="15">✨</text>
      <text x="60" y="30" fill="white" fill-opacity="0.7" font-family="IBM Plex Sans Thai" font-size="15">คุณภาพรีวิว &amp; อุทธรณ์</text>
    </g>
    <g transform="translate(0, 192)">
      <text x="24" y="30" fill="white" fill-opacity="0.7" font-family="Inter" font-size="15">📈</text>
      <text x="60" y="30" fill="white" fill-opacity="0.7" font-family="IBM Plex Sans Thai" font-size="15">รายงานระบบ</text>
    </g>

    <!-- Active Item: Policy & PDPA -->
    <g transform="translate(0, 240)">
        <rect x="0" y="0" width="260" height="48" fill="white" fill-opacity="0.1"/>
        <rect x="0" y="0" width="4" height="48" fill="#FF9F43"/>
        <text x="24" y="30" fill="white" font-family="Inter" font-size="15">🛡️</text>
        <text x="60" y="30" fill="white" font-family="IBM Plex Sans Thai" font-size="15" font-weight="500">นโยบาย &amp; PDPA</text>
    </g>

    <g transform="translate(0, 288)">
      <text x="24" y="30" fill="white" fill-opacity="0.7" font-family="Inter" font-size="15">🖥️</text>
      <text x="60" y="30" fill="white" fill-opacity="0.7" font-family="IBM Plex Sans Thai" font-size="15">เฝ้าระวังระบบคลาวด์</text>
    </g>
  </g>

  <line x1="0" y1="920" x2="260" y2="920" stroke="white" stroke-opacity="0.1"/>
  <g transform="translate(0, 940)">
    <text x="24" y="30" fill="white" fill-opacity="0.7" font-family="Inter" font-size="15">🚪</text>
    <text x="60" y="30" fill="white" fill-opacity="0.7" font-family="IBM Plex Sans Thai" font-size="15">ออกจากระบบ</text>
  </g>

  <!-- Main Content -->
  <!-- Header -->
  <g transform="translate(292, 32)">
    <rect width="1116" height="80" rx="16" fill="white" filter="url(#shadow)"/>
    <g transform="translate(24, 18)">
        <text y="18" fill="#1E1E1E" font-family="IBM Plex Sans Thai" font-size="22" font-weight="700">นโยบาย &amp; PDPA Control Center</text>
        <text y="42" fill="#6E6B7B" font-family="IBM Plex Sans Thai" font-size="14">จัดการความยินยอม, คำร้องข้อมูลส่วนบุคคล และการตรวจสอบย้อนกลับ</text>
    </g>
    
    <g transform="translate(850, 16)">
      <text x="190" y="18" text-anchor="end" fill="#1E1E1E" font-family="IBM Plex Sans Thai" font-size="14" font-weight="700">Michael Jackson</text>
      <text x="190" y="38" text-anchor="end" fill="#6E6B7B" font-family="IBM Plex Sans Thai" font-size="12">Platform Operator (DPO Role)</text>
      <rect x="216" y="0" width="48" height="48" rx="12" fill="#E0F2F4"/>
      <text x="240" y="30" text-anchor="middle" fill="#007A8C" font-family="Inter" font-size="18" font-weight="700">VW</text>
    </g>
  </g>

  <!-- Metrics Grid -->
  <g transform="translate(292, 144)">
    <!-- Card 1 -->
    <rect width="264" height="110" rx="16" fill="white" filter="url(#shadow)"/>
    <rect width="264" height="4" rx="2" fill="#007A8C"/>
    <text x="20" y="32" fill="#6E6B7B" font-family="IBM Plex Sans Thai" font-size="13" font-weight="500">คำร้อง DSR ค้างดำเนินการ</text>
    <text x="20" y="68" fill="#1E1E1E" font-family="IBM Plex Sans Thai" font-size="24" font-weight="700">5 รายการ</text>
    <text x="20" y="90" fill="#EA5455" font-family="IBM Plex Sans Thai" font-size="11">⚠️ เร่งด่วน (ใกล้ครบ 30 วัน): 1</text>

    <!-- Card 2 -->
    <g transform="translate(284, 0)">
      <rect width="264" height="110" rx="16" fill="white" filter="url(#shadow)"/>
      <rect width="264" height="4" rx="2" fill="#28C76F"/>
      <text x="20" y="32" fill="#6E6B7B" font-family="IBM Plex Sans Thai" font-size="13" font-weight="500">อัตราการยอมรับนโยบายล่าสุด</text>
      <text x="20" y="68" fill="#1E1E1E" font-family="IBM Plex Sans Thai" font-size="24" font-weight="700">94.2%</text>
      <text x="20" y="90" fill="#6E6B7B" font-family="IBM Plex Sans Thai" font-size="11">Consent Version v2.4</text>
    </g>

    <!-- Card 3 -->
    <g transform="translate(568, 0)">
      <rect width="264" height="110" rx="16" fill="white" filter="url(#shadow)"/>
      <rect width="264" height="4" rx="2" fill="#00CFE8"/>
      <text x="20" y="32" fill="#6E6B7B" font-family="IBM Plex Sans Thai" font-size="13" font-weight="500">Privacy Access (Last 24h)</text>
      <text x="20" y="68" fill="#1E1E1E" font-family="IBM Plex Sans Thai" font-size="24" font-weight="700">128 ครั้ง</text>
      <text x="20" y="90" fill="#6E6B7B" font-family="IBM Plex Sans Thai" font-size="11">การเข้าถึงข้อมูลโดย Admin/Staff</text>
    </g>

    <!-- Card 4 -->
    <g transform="translate(852, 0)">
      <rect width="264" height="110" rx="16" fill="white" filter="url(#shadow)"/>
      <rect width="264" height="4" rx="2" fill="#FF9F43"/>
      <text x="20" y="32" fill="#6E6B7B" font-family="IBM Plex Sans Thai" font-size="13" font-weight="500">Data Retention Status</text>
      <text x="20" y="68" fill="#1E1E1E" font-family="Inter" font-size="24" font-weight="700">Compliant</text>
      <text x="20" y="90" fill="#28C76F" font-family="IBM Plex Sans Thai" font-size="11">Auto-purge enabled</text>
    </g>
  </g>

  <!-- Sections Container -->
  <g transform="translate(292, 286)">
    <!-- Consent Versioning Card -->
    <g transform="translate(0, 0)">
      <rect width="546" height="440" rx="16" fill="white" filter="url(#shadow)"/>
      <text x="24" y="44" fill="#1E1E1E" font-family="IBM Plex Sans Thai" font-size="16" font-weight="700">Consent Versioning (Terms &amp; Privacy)</text>
      <rect x="386" y="24" width="136" height="32" rx="6" fill="#007A8C"/>
      <text x="454" y="44" text-anchor="middle" fill="white" font-family="IBM Plex Sans Thai" font-size="12" font-weight="600">+ สร้างเวอร์ชันใหม่</text>
      <line x1="24" y1="68" x2="522" y2="68" stroke="#F8F8F8"/>

      <!-- Table Header -->
      <rect x="24" y="80" width="498" height="36" rx="4" fill="#F8F8F8"/>
      <text x="36" y="102" fill="#6E6B7B" font-family="IBM Plex Sans Thai" font-size="12" font-weight="600">เวอร์ชัน</text>
      <text x="160" y="102" fill="#6E6B7B" font-family="IBM Plex Sans Thai" font-size="12" font-weight="600">ประเภท</text>
      <text x="280" y="102" fill="#6E6B7B" font-family="IBM Plex Sans Thai" font-size="12" font-weight="600">วันที่ประกาศ</text>
      <text x="380" y="102" fill="#6E6B7B" font-family="IBM Plex Sans Thai" font-size="12" font-weight="600">สถานะ</text>
      <text x="470" y="102" fill="#6E6B7B" font-family="IBM Plex Sans Thai" font-size="12" font-weight="600">จัดการ</text>

      <!-- Row 1 -->
      <g transform="translate(0, 116)">
        <text x="36" y="24" fill="#1E1E1E" font-family="IBM Plex Sans Thai" font-size="13" font-weight="600">v2.4 (Current)</text>
        <text x="160" y="24" fill="#1E1E1E" font-family="Inter" font-size="13">Privacy Policy</text>
        <text x="280" y="24" fill="#1E1E1E" font-family="IBM Plex Sans Thai" font-size="13">15 มี.ค. 2026</text>
        <rect x="380" y="8" width="70" height="22" rx="6" fill="rgba(40, 199, 111, 0.12)"/>
        <text x="415" y="22" text-anchor="middle" fill="#28C76F" font-family="IBM Plex Sans Thai" font-size="11" font-weight="600">ใช้งานอยู่</text>
        <rect x="466" y="8" width="56" height="22" rx="6" stroke="#B9B9C3" fill="white"/>
        <text x="494" y="22" text-anchor="middle" fill="#6E6B7B" font-family="IBM Plex Sans Thai" font-size="11" font-weight="600">ดูเนื้อหา</text>
        <line x1="24" y1="44" x2="522" y2="44" stroke="#F8F8F8"/>
      </g>
      <!-- Row 2 -->
      <g transform="translate(0, 160)">
        <text x="36" y="24" fill="#1E1E1E" font-family="IBM Plex Sans Thai" font-size="13" font-weight="600">v2.3</text>
        <text x="160" y="24" fill="#1E1E1E" font-family="Inter" font-size="13">Privacy Policy</text>
        <text x="280" y="24" fill="#1E1E1E" font-family="IBM Plex Sans Thai" font-size="13">01 ม.ค. 2026</text>
        <rect x="380" y="8" width="50" height="22" rx="6" fill="#F8F8F8"/>
        <text x="405" y="22" text-anchor="middle" fill="#6E6B7B" font-family="IBM Plex Sans Thai" font-size="11" font-weight="600">ยกเลิก</text>
        <rect x="466" y="8" width="56" height="22" rx="6" stroke="#B9B9C3" fill="white"/>
        <text x="494" y="22" text-anchor="middle" fill="#6E6B7B" font-family="IBM Plex Sans Thai" font-size="11" font-weight="600">Audit</text>
        <line x1="24" y1="44" x2="522" y2="44" stroke="#F8F8F8"/>
      </g>
      <!-- Row 3 -->
      <g transform="translate(0, 204)">
        <text x="36" y="24" fill="#1E1E1E" font-family="IBM Plex Sans Thai" font-size="13" font-weight="600">v1.1</text>
        <text x="160" y="24" fill="#1E1E1E" font-family="Inter" font-size="13">T&amp;C</text>
        <text x="280" y="24" fill="#1E1E1E" font-family="IBM Plex Sans Thai" font-size="13">12 ธ.ค. 2025</text>
        <rect x="380" y="8" width="70" height="22" rx="6" fill="rgba(40, 199, 111, 0.12)"/>
        <text x="415" y="22" text-anchor="middle" fill="#28C76F" font-family="IBM Plex Sans Thai" font-size="11" font-weight="600">ใช้งานอยู่</text>
        <rect x="466" y="8" width="56" height="22" rx="6" stroke="#B9B9C3" fill="white"/>
        <text x="494" y="22" text-anchor="middle" fill="#6E6B7B" font-family="IBM Plex Sans Thai" font-size="11" font-weight="600">ดูเนื้อหา</text>
      </g>

      <!-- Broadcast Box -->
      <g transform="translate(24, 340)">
        <rect width="498" height="76" rx="12" fill="#FFF3E6" stroke="#FF9F43" stroke-dasharray="4 4"/>
        <text x="16" y="32" fill="#1E1E1E" font-family="IBM Plex Sans Thai" font-size="14" font-weight="700">Broadcast Policy Update</text>
        <text x="16" y="52" fill="#6E6B7B" font-family="IBM Plex Sans Thai" font-size="12">ส่งแจ้งเตือนให้ผู้ใช้ทุกคนยอมรับนโยบายใหม่ (v2.4)</text>
        <rect x="310" y="22" width="172" height="32" rx="6" fill="#FF9F43"/>
        <text x="396" y="42" text-anchor="middle" fill="white" font-family="IBM Plex Sans Thai" font-size="12" font-weight="600">📢 ส่งแจ้งเตือน Re-consent</text>
      </g>
    </g>

    <!-- DSR Request Queue Card -->
    <g transform="translate(570, 0)">
      <rect width="546" height="440" rx="16" fill="white" filter="url(#shadow)"/>
      <text x="24" y="44" fill="#1E1E1E" font-family="IBM Plex Sans Thai" font-size="16" font-weight="700">DSR Request Queue (คำร้องขอใช้สิทธิ์)</text>
      <text x="522" y="44" text-anchor="end" fill="#007A8C" font-family="IBM Plex Sans Thai" font-size="12" font-weight="600">ดูทั้งหมด</text>
      <line x1="24" y1="68" x2="522" y2="68" stroke="#F8F8F8"/>

      <!-- Table Header -->
      <rect x="24" y="80" width="498" height="36" rx="4" fill="#F8F8F8"/>
      <text x="36" y="102" fill="#6E6B7B" font-family="IBM Plex Sans Thai" font-size="12" font-weight="600">ผู้ยื่นคำร้อง</text>
      <text x="180" y="102" fill="#6E6B7B" font-family="IBM Plex Sans Thai" font-size="12" font-weight="600">ประเภทสิทธิ์</text>
      <text x="280" y="102" fill="#6E6B7B" font-family="IBM Plex Sans Thai" font-size="12" font-weight="600">วันที่ยื่น</text>
      <text x="360" y="102" fill="#6E6B7B" font-family="IBM Plex Sans Thai" font-size="12" font-weight="600">DEADLINE</text>
      <text x="460" y="102" fill="#6E6B7B" font-family="IBM Plex Sans Thai" font-size="12" font-weight="600">สถานะ</text>

      <!-- Row 1 -->
      <g transform="translate(0, 116)">
        <text x="36" y="20" fill="#1E1E1E" font-family="IBM Plex Sans Thai" font-size="13" font-weight="600">คุณวิภาดา กาญจน์</text>
        <text x="36" y="38" fill="#6E6B7B" font-family="Inter" font-size="11">User ID: #U-8821</text>
        <text x="180" y="28" fill="#1E1E1E" font-family="IBM Plex Sans Thai" font-size="12">ขอลบข้อมูล (Erasure)</text>
        <text x="280" y="28" fill="#1E1E1E" font-family="Inter" font-size="12">10 พ.ค. 26</text>
        <text x="360" y="28" fill="#EA5455" font-family="Inter" font-size="12" font-weight="700">09 มิ.ย. 26</text>
        <rect x="460" y="12" width="62" height="22" rx="6" fill="#FFF3E6"/>
        <text x="491" y="26" text-anchor="middle" fill="#FF9F43" font-family="IBM Plex Sans Thai" font-size="11" font-weight="600">รอตรวจ</text>
        <line x1="24" y1="52" x2="522" y2="52" stroke="#F8F8F8"/>
      </g>
      <!-- Row 2 -->
      <g transform="translate(0, 168)">
        <text x="36" y="20" fill="#1E1E1E" font-family="IBM Plex Sans Thai" font-size="13" font-weight="600">นายสมศักดิ์ รักดี</text>
        <text x="36" y="38" fill="#6E6B7B" font-family="Inter" font-size="11">Staff ID: #S-102</text>
        <text x="180" y="28" fill="#1E1E1E" font-family="IBM Plex Sans Thai" font-size="12">ขอเข้าถึงข้อมูล (Access)</text>
        <text x="280" y="28" fill="#1E1E1E" font-family="Inter" font-size="12">11 พ.ค. 26</text>
        <text x="360" y="28" fill="#1E1E1E" font-family="Inter" font-size="12">10 มิ.ย. 26</text>
        <rect x="460" y="12" width="62" height="22" rx="6" fill="rgba(40, 199, 111, 0.12)"/>
        <text x="491" y="26" text-anchor="middle" fill="#28C76F" font-family="IBM Plex Sans Thai" font-size="10" font-weight="600">ดำเนินการแล้ว</text>
        <line x1="24" y1="52" x2="522" y2="52" stroke="#F8F8F8"/>
      </g>
      <!-- Row 3 -->
      <g transform="translate(0, 220)">
        <text x="36" y="20" fill="#1E1E1E" font-family="IBM Plex Sans Thai" font-size="13" font-weight="600">Anonymous User</text>
        <text x="36" y="38" fill="#6E6B7B" font-family="Inter" font-size="11">Email: test@temp.com</text>
        <text x="180" y="28" fill="#1E1E1E" font-family="IBM Plex Sans Thai" font-size="12">ขอคัดค้าน (Object)</text>
        <text x="280" y="28" fill="#1E1E1E" font-family="Inter" font-size="12">12 พ.ค. 26</text>
        <text x="360" y="28" fill="#1E1E1E" font-family="Inter" font-size="12">11 มิ.ย. 26</text>
        <rect x="460" y="12" width="62" height="22" rx="6" fill="rgba(234, 84, 85, 0.12)"/>
        <text x="491" y="26" text-anchor="middle" fill="#EA5455" font-family="IBM Plex Sans Thai" font-size="11" font-weight="600">เกินกำหนด</text>
      </g>
    </g>

    <!-- Privacy Access Log Card -->
    <g transform="translate(0, 464)">
      <rect width="1116" height="380" rx="16" fill="white" filter="url(#shadow)"/>
      <text x="24" y="44" fill="#1E1E1E" font-family="IBM Plex Sans Thai" font-size="16" font-weight="700">Privacy Access Log (Access Audit Trail)</text>
      
      <g transform="translate(750, 24)">
        <rect width="200" height="32" rx="6" stroke="#B9B9C3" fill="white"/>
        <text x="12" y="21" fill="#B9B9C3" font-family="IBM Plex Sans Thai" font-size="12">กรองตาม Admin ID...</text>
        <rect x="210" width="132" height="32" rx="6" stroke="#B9B9C3" fill="white"/>
        <text x="276" y="21" text-anchor="middle" fill="#6E6B7B" font-family="IBM Plex Sans Thai" font-size="12" font-weight="600">📥 Export Log</text>
      </g>
      
      <line x1="24" y1="68" x2="1092" y2="68" stroke="#F8F8F8"/>

      <g transform="translate(24, 84)">
        <!-- Item 1 -->
        <g transform="translate(0, 0)">
          <rect width="1068" height="70" rx="10" fill="#F8F8F8"/>
          <path d="M0 10C0 4.47715 4.47715 0 10 0H10V70H10C4.47715 70 0 65.5228 0 60V10Z" fill="#007A8C"/>
          <text x="20" y="24" fill="#6E6B7B" font-family="Inter" font-size="11">12 พ.ค. 2026 - 14:20:05</text>
          <text x="1048" y="24" text-anchor="end" fill="#007A8C" font-family="Inter" font-size="11" font-weight="700">Admin: Michael Jackson (#ADM-01)</text>
          <text x="20" y="50" fill="#1E1E1E" font-family="IBM Plex Sans Thai" font-size="13">
            <tspan font-weight="700">Action:</tspan> เรียกดูข้อมูล "ที่อยู่จัดส่ง" และ "เบอร์โทรศัพท์" ของผู้ใช้ <tspan font-weight="700">#U-5501</tspan> (เพื่อประสานงานเคสอุทธรณ์)
          </text>
        </g>
        <!-- Item 2 -->
        <g transform="translate(0, 82)">
          <rect width="1068" height="70" rx="10" fill="#F8F8F8"/>
          <path d="M0 10C0 4.47715 4.47715 0 10 0H10V70H10C4.47715 70 0 65.5228 0 60V10Z" fill="#007A8C"/>
          <text x="20" y="24" fill="#6E6B7B" font-family="Inter" font-size="11">12 พ.ค. 2026 - 11:45:12</text>
          <text x="1048" y="24" text-anchor="end" fill="#007A8C" font-family="Inter" font-size="11" font-weight="700">System: Auto-Purge Service</text>
          <text x="20" y="50" fill="#1E1E1E" font-family="IBM Plex Sans Thai" font-size="13">
            <tspan font-weight="700">Action:</tspan> ลบข้อมูลประวัติการจองที่หมดอายุความตามนโยบาย (7 ปี) จำนวน 1,240 รายการ
          </text>
        </g>
        <!-- Item 3 -->
        <g transform="translate(0, 164)">
          <rect width="1068" height="70" rx="10" fill="#F8F8F8"/>
          <path d="M0 10C0 4.47715 4.47715 0 10 0H10V70H10C4.47715 70 0 65.5228 0 60V10Z" fill="#EA5455"/>
          <text x="20" y="24" fill="#6E6B7B" font-family="Inter" font-size="11">12 พ.ค. 2026 - 09:15:30</text>
          <text x="1048" y="24" text-anchor="end" fill="#EA5455" font-family="Inter" font-size="11" font-weight="700">Staff: Somchai J. (#STF-22)</text>
          <text x="20" y="50" fill="#1E1E1E" font-family="IBM Plex Sans Thai" font-size="13">
            <tspan font-weight="700">Action:</tspan> พยายามส่งออก (Export) รายชื่อ Caregiver ทั้งหมดพร้อมเบอร์โทรศัพท์ <tspan fill="#EA5455" font-weight="700">[ถูกบล็อกเนื่องจากสิทธิ์ไม่เพียงพอ]</tspan>
          </text>
        </g>
      </g>
    </g>
  </g>

  <!-- Floating Security Note -->
  <rect x="1020" y="1120" width="388" height="48" rx="8" fill="#1E1E1E" filter="url(#shadow)"/>
  <circle cx="1044" cy="1144" r="4" fill="#00CFE8">
    <animate attributeName="fill-opacity" values="1;0.4;1" dur="2s" repeatCount="indefinite" />
  </circle>
  <circle cx="1044" cy="1144" r="8" stroke="#00CFE8" stroke-opacity="0.3"/>
  <text x="1062" y="1148" fill="#00CFE8" font-family="Inter" font-size="11" font-weight="600">ENCRYPTED AT REST | DATA PROTECTION OFFICER MODE ACTIVE</text>

  <!-- Filters & Shadows -->
  <defs>
    <filter id="shadow" x="-4" y="0" width="100%" height="100%" filterUnits="userSpaceOnUse" color-interpolation-filters="sRGB">
      <feFlood flood-opacity="0" result="BackgroundImageFix"/>
      <feColorMatrix in="SourceAlpha" type="matrix" values="0 0 0 0 0 0 0 0 0 0 0 0 0 0 0 0 0 0 127 0" result="hardAlpha"/>
      <feOffset dy="4"/>
      <feGaussianBlur stdDeviation="6"/>
      <feColorMatrix type="matrix" values="0 0 0 0 0 0 0 0 0 0 0 0 0 0 0 0 0 0 0.03 0"/>
      <feBlend mode="normal" in2="BackgroundImageFix" result="effect1_dropShadow"/>
      <feBlend mode="normal" in="SourceGraphic" in2="effect1_dropShadow" result="shape"/>
    </filter>
  </defs>
</svg>
